<?xml version="1.0" encoding="UTF-8"?>
<svg xmlns="http://www.w3.org/2000/svg" xmlns:xlink="http://www.w3.org/1999/xlink" width="190px" height="130px" viewBox="0 0 960 540" version="1.1">
<g id="surface1">
<path style=" stroke:none;fill-rule:nonzero;fill:rgb(43.137255%,0%,100%);fill-opacity:1;" d="M 662.183594 289.925781 L 662.183594 288.695312 C 662.210938 289.46875 662.183594 289.925781 662.183594 289.925781 Z M 662.183594 289.925781 "/>
<path style=" stroke:none;fill-rule:nonzero;fill:rgb(43.137255%,0%,100%);fill-opacity:1;" d="M 60.828125 211.328125 L 85.339844 202.519531 L 85.339844 310.136719 C 85.339844 310.136719 84.191406 329.285156 60.445312 339.238281 C 36.699219 349.195312 14.871094 331.578125 14.871094 331.578125 L 33.636719 313.195312 C 33.636719 313.195312 54.316406 321.238281 57.765625 305.921875 C 61.210938 290.601562 60.828125 211.324219 60.828125 211.324219 Z M 60.828125 211.328125 "/>
<path style=" stroke:none;fill-rule:nonzero;fill:rgb(43.137255%,0%,100%);fill-opacity:1;" d="M 151.671875 241.96875 C 123.496094 241.96875 100.660156 264.808594 100.660156 292.980469 C 100.660156 321.148438 123.496094 343.988281 151.671875 343.988281 C 179.84375 343.988281 202.679688 321.148438 202.679688 292.980469 C 202.679688 264.808594 179.839844 241.96875 151.671875 241.96875 Z M 151.671875 318.460938 C 137.578125 318.460938 126.164062 307.039062 126.164062 292.953125 C 126.164062 278.871094 137.578125 267.449219 151.671875 267.449219 C 165.761719 267.449219 177.175781 278.871094 177.175781 292.953125 C 177.175781 307.039062 165.753906 318.460938 151.671875 318.460938 Z M 151.671875 318.460938 "/>
<path style=" stroke:none;fill-rule:nonzero;fill:rgb(43.137255%,0%,100%);fill-opacity:1;" d="M 396.699219 196.011719 L 396.699219 247.328125 L 397.085938 248.003906 C 389.589844 243.691406 380.894531 241.226562 371.625 241.226562 C 343.394531 241.226562 320.511719 264.109375 320.511719 292.339844 C 320.511719 320.570312 343.394531 343.460938 371.625 343.460938 C 399.855469 343.460938 422.414062 320.898438 422.738281 292.945312 C 422.738281 292.746094 422.738281 292.539062 422.738281 292.339844 L 422.738281 204.820312 L 396.695312 196.011719 Z M 372.125 317.476562 C 358.320312 317.476562 347.128906 306.285156 347.128906 292.480469 C 347.128906 278.675781 358.320312 267.484375 372.125 267.484375 C 385.929688 267.484375 397.121094 278.675781 397.121094 292.480469 C 397.121094 306.285156 385.929688 317.476562 372.125 317.476562 Z M 372.125 317.476562 "/>
<path style=" stroke:none;fill-rule:nonzero;fill:rgb(43.137255%,0%,100%);fill-opacity:1;" d="M 214.511719 204.820312 L 214.511719 292.339844 C 214.511719 292.539062 214.511719 292.746094 214.511719 292.945312 C 214.835938 320.898438 237.589844 343.460938 265.625 343.460938 C 293.855469 343.460938 316.738281 320.574219 316.738281 292.339844 C 316.738281 264.109375 293.855469 241.226562 265.625 241.226562 C 256.355469 241.226562 247.660156 243.691406 240.164062 248.003906 L 240.550781 247.328125 L 240.550781 196.011719 C 240.550781 196.011719 214.503906 204.820312 214.503906 204.820312 Z M 240.136719 292.480469 C 240.136719 278.675781 251.324219 267.484375 265.128906 267.484375 C 278.933594 267.484375 290.125 278.675781 290.125 292.480469 C 290.125 306.285156 278.933594 317.476562 265.128906 317.476562 C 251.324219 317.476562 240.136719 306.285156 240.136719 292.480469 Z M 240.136719 292.480469 "/>
<path style=" stroke:none;fill-rule:nonzero;fill:rgb(43.137255%,0%,100%);fill-opacity:1;" d="M 484.980469 241.226562 C 456.746094 241.226562 433.859375 264.109375 433.859375 292.339844 C 433.859375 320.570312 456.746094 343.460938 484.980469 343.460938 C 513.214844 343.460938 536.09375 320.574219 536.09375 292.339844 C 536.09375 264.105469 513.210938 241.226562 484.980469 241.226562 Z M 484.980469 317.476562 C 471.175781 317.476562 459.980469 306.285156 459.980469 292.480469 C 459.980469 278.675781 471.175781 267.484375 484.980469 267.484375 C 498.785156 267.484375 509.976562 278.675781 509.976562 292.480469 C 509.976562 306.285156 498.78125 317.476562 484.980469 317.476562 Z M 484.980469 317.476562 "/>
<path style=" stroke:none;fill-rule:nonzero;fill:rgb(43.137255%,0%,100%);fill-opacity:1;" d="M 692.984375 282.351562 C 693.078125 282.921875 693.125 283.5 693.125 284.09375 L 693.125 341.925781 L 667.851562 341.925781 L 667.851562 289.925781 C 667.851562 289.925781 668.871094 268.648438 649.71875 268.988281 C 642.445312 269.121094 637.691406 273.796875 634.574219 279.144531 L 634.574219 341.925781 L 607.339844 341.925781 L 607.339844 282.09375 C 607.339844 282.09375 604.105469 268.988281 589.636719 269.328125 C 581.914062 269.511719 576.761719 274.785156 573.636719 279.664062 L 573.636719 341.925781 L 547.425781 341.925781 L 547.425781 241.226562 L 573.636719 241.226562 L 573.636719 246.613281 C 578.074219 245.195312 587.011719 242.96875 598.148438 243.5 C 614.234375 244.269531 617.933594 256.90625 620.359375 256.90625 C 622.785156 256.90625 630.273438 241.820312 654.660156 242.441406 C 679.039062 243.054688 693.125 268.394531 693.125 282.308594 Z M 692.984375 282.351562 "/>
<path style=" stroke:none;fill-rule:nonzero;fill:rgb(43.137255%,0%,100%);fill-opacity:1;" d="M 803.296875 305.671875 L 803.296875 292.140625 C 803.296875 264.359375 780.636719 241.839844 752.679688 241.839844 C 724.726562 241.839844 702.066406 264.359375 702.066406 292.140625 C 702.066406 319.921875 724.726562 342.441406 752.679688 342.441406 C 767.074219 342.441406 779.496094 337.054688 788.714844 327.46875 L 771.640625 310.648438 C 767.105469 315.390625 759.65625 317.414062 752.730469 317.414062 C 743.523438 317.414062 735.484375 313.386719 731.136719 305.671875 L 774.804688 305.671875 M 730.984375 279.5 C 735.304688 271.644531 743.425781 266.355469 752.730469 266.355469 C 762.035156 266.355469 770.148438 271.644531 774.464844 279.5 Z M 730.984375 279.5 "/>
<path style=" stroke:none;fill-rule:nonzero;fill:rgb(43.137255%,0%,100%);fill-opacity:1;" d="M 837.128906 237.5 L 811.339844 248.734375 L 811.339844 342.441406 L 837.128906 342.441406 Z M 837.128906 237.5 "/>
<path style=" stroke:none;fill-rule:nonzero;fill:rgb(43.137255%,0%,100%);fill-opacity:1;" d="M 945.125 289.304688 L 945.125 342.441406 L 919.339844 342.441406 L 919.339844 288.695312 C 919.339844 288.695312 919.339844 269.671875 900.191406 269.414062 C 884.785156 269.210938 881.039062 283.640625 881.039062 283.640625 L 881.039062 341.925781 L 854.746094 341.925781 L 854.746094 239.800781 L 881.039062 239.800781 L 881.039062 247.695312 C 885.480469 246 901.070312 241.253906 920.699219 248.988281 C 939.984375 256.589844 944.078125 276.359375 944.925781 285.753906 C 945.054688 287.21875 945.105469 288.429688 945.125 289.304688 Z M 945.125 289.304688 "/>
<path style=" stroke:none;fill-rule:nonzero;fill:rgb(43.137255%,0%,100%);fill-opacity:1;" d="M 939.460938 285.753906 L 939.460938 289.304688 C 939.441406 288.429688 939.390625 287.21875 939.261719 285.753906 Z M 939.460938 285.753906 "/>
<path style=" stroke:none;fill-rule:nonzero;fill:rgb(43.137255%,0%,100%);fill-opacity:1;" d="M 939.460938 290.859375 L 939.460938 289.304688 C 939.484375 290.300781 939.460938 290.859375 939.460938 290.859375 Z M 939.460938 290.859375 "/>
</g>
</svg>
