<?xml version="1.0" encoding="UTF-8"?>
<svg id="Layer_1" data-name="Layer 1" xmlns="http://www.w3.org/2000/svg" viewBox="0 0 1920 1080">
  <defs>
    <style>
      .cls-1 {
        fill: #6e00ff;
        stroke-width: 0px;
      }
    </style>
  </defs>
  <path class="cls-1" d="M834.16,584.68v1.23-1.23Z"/>
  <path class="cls-1" d="M1324.37,579.85v-2.46c.05,1.55,0,2.46,0,2.46Z"/>
  <g>
    <path class="cls-1" d="M121.66,422.66l49.02-17.62v215.23s-2.3,38.3-49.79,58.21c-47.49,19.91-91.15-15.32-91.15-15.32l37.53-36.77s41.36,16.09,48.26-14.55c6.89-30.64,6.13-189.19,6.13-189.19Z"/>
    <path class="cls-1" d="M303.34,483.94c-56.35,0-102.02,45.68-102.02,102.02s45.67,102.02,102.02,102.02,102.02-45.68,102.02-102.02-45.68-102.02-102.02-102.02ZM303.34,636.92c-28.18,0-51.01-22.84-51.01-51.01s22.83-51.01,51.01-51.01,51.01,22.84,51.01,51.01-22.84,51.01-51.01,51.01Z"/>
    <path class="cls-1" d="M793.4,392.02v102.64l.77,1.35c-14.99-8.63-32.38-13.56-50.92-13.56-56.46,0-102.23,45.77-102.23,102.23s45.77,102.24,102.23,102.24,101.58-45.12,102.23-101.03c0-.4,0-.81,0-1.21v-175.04l-52.09-17.62ZM744.25,634.95c-27.61,0-49.99-22.38-49.99-49.99s22.38-49.99,49.99-49.99,49.99,22.38,49.99,49.99-22.38,49.99-49.99,49.99Z"/>
    <path class="cls-1" d="M429.02,409.64v175.04c0,.4,0,.81,0,1.21.65,55.91,46.16,101.03,102.23,101.03,56.46,0,102.23-45.77,102.23-102.24,0-56.46-45.77-102.23-102.23-102.23-18.54,0-35.93,4.93-50.92,13.56l.77-1.35v-102.64s-52.09,17.62-52.09,17.62ZM480.27,584.96c0-27.61,22.38-49.99,49.99-49.99,27.61,0,49.99,22.38,49.99,49.99,0,27.61-22.38,49.99-49.99,49.99s-49.99-22.38-49.99-49.99Z"/>
    <path class="cls-1" d="M969.96,482.45c-56.47,0-102.24,45.77-102.24,102.23s45.77,102.24,102.24,102.24,102.23-45.77,102.23-102.24-45.77-102.23-102.23-102.23ZM969.96,634.95c-27.61,0-50-22.38-50-49.99s22.39-49.99,50-49.99,49.99,22.38,49.99,49.99-22.39,49.99-49.99,49.99Z"/>
    <path class="cls-1" d="M1385.97,564.7c.19,1.14.28,2.3.28,3.49v115.66h-50.55v-104s2.04-42.55-36.26-41.87c-14.55.26-24.06,9.61-30.29,20.31v125.56h-54.47v-119.66s-6.47-26.21-35.41-25.53c-15.44.36-25.75,10.91-32,20.67v124.52h-52.42v-201.4h52.42v10.78c8.88-2.84,26.75-7.29,49.03-6.23,32.17,1.54,39.57,26.81,44.42,26.81s19.83-30.17,68.6-28.93c48.76,1.23,76.93,51.91,76.93,79.74l-.28.08Z"/>
    <path class="cls-1" d="M1606.59,611.34v-27.06c0-55.56-45.32-100.6-101.23-100.6s-101.23,45.04-101.23,100.6,45.32,100.6,101.23,100.6c28.79,0,53.63-10.77,72.07-29.94l-34.15-33.64c-9.07,9.48-23.97,13.53-37.82,13.53-18.41,0-34.49-8.06-43.19-23.49h87.34M1461.97,559c8.64-15.71,24.88-26.29,43.49-26.29s34.84,10.58,43.47,26.29h-86.96Z"/>
    <polygon class="cls-1" points="1674.26 475 1622.68 497.47 1622.68 684.88 1674.26 684.88 1674.26 475"/>
    <path class="cls-1" d="M1890.25,578.61v106.27h-51.57v-107.49s0-38.05-38.3-38.56c-30.81-.41-38.3,28.45-38.3,28.45v116.57h-52.59v-204.25h52.59v15.79c8.88-3.39,40.06-12.88,79.32,2.59,38.57,15.2,46.76,54.74,48.45,73.53.26,2.93.36,5.35.4,7.1Z"/>
  </g>
  <path class="cls-1" d="M1878.92,571.51v7.1c-.04-1.75-.14-4.17-.4-7.1h.4Z"/>
  <path class="cls-1" d="M1878.92,581.72v-3.11c.05,1.99,0,3.11,0,3.11Z"/>
</svg>