<?xml version="1.0" standalone="no"?>
<!DOCTYPE svg PUBLIC "-//W3C//DTD SVG 20010904//EN"
 "http://www.w3.org/TR/2001/REC-SVG-20010904/DTD/svg10.dtd">
<svg version="1.0" xmlns="http://www.w3.org/2000/svg"
 width="834.000000pt" height="834.000000pt" viewBox="0 0 834.000000 834.000000"
 preserveAspectRatio="xMidYMid meet">
<metadata>
Created by potrace 1.14, written by Peter Selinger 2001-2017
</metadata>
<g transform="translate(0.000000,834.000000) scale(0.100000,-0.100000)"
fill="#000000" stroke="none">
<path d="M2432 7549 c-34 -4 -79 -11 -100 -15 -20 -3 -44 -7 -52 -9 -105 -17
-315 -95 -460 -172 -354 -186 -572 -428 -652 -723 -19 -73 -23 -108 -22 -251
l0 -165 -63 -19 c-406 -116 -634 -493 -634 -1052 -1 -70 2 -153 5 -183 7 -65
17 -147 21 -175 13 -99 49 -277 70 -347 7 -26 12 -48 9 -48 -3 0 0 -8 5 -19 6
-10 13 -33 16 -51 9 -53 77 -252 201 -590 l39 -105 80 -5 80 -5 -60 -14 c-219
-50 -408 -218 -490 -436 -14 -36 -25 -74 -25 -85 0 -11 -6 -20 -12 -21 -7 0
-58 -2 -113 -3 -111 -2 -155 -17 -190 -64 -18 -24 -20 -43 -20 -184 0 -142 2
-159 21 -184 38 -51 85 -67 195 -67 67 1 99 -3 100 -11 0 -6 2 -144 3 -306 2
-162 6 -304 9 -315 3 -11 8 -33 12 -50 13 -53 54 -143 92 -202 102 -160 306
-288 491 -309 76 -9 2193 -8 2257 0 270 37 493 221 575 476 30 91 33 118 35
285 2 88 3 163 4 166 1 3 160 6 355 6 l354 0 4 -186 c5 -199 18 -261 75 -376
99 -196 304 -340 528 -371 66 -9 2073 -9 2150 0 149 18 289 89 407 208 104
104 162 220 192 383 3 17 6 159 7 316 l1 286 116 -1 c176 -2 214 10 249 78 11
22 15 65 15 177 1 132 -1 151 -20 181 -36 57 -52 62 -214 64 -146 3 -148 2
-149 -19 -1 -12 -7 4 -14 35 -38 176 -144 331 -292 430 -78 52 -180 95 -250
106 -41 6 -31 8 66 12 l113 5 19 50 c45 116 121 412 143 555 20 127 28 184 34
255 9 105 9 429 0 525 -26 279 -86 518 -176 700 -57 114 -57 116 -57 205 0 69
5 99 19 129 43 85 148 161 286 205 103 33 105 34 290 37 96 2 181 3 188 4 21
0 10 81 -24 184 -39 119 -134 284 -233 406 -72 88 -231 241 -316 305 -112 85
-279 165 -415 201 -266 70 -426 89 -750 89 -320 0 -443 -17 -682 -94 -212 -69
-505 -135 -738 -166 -63 -9 -128 -17 -145 -20 -192 -26 -603 -26 -755 -1 -14
3 -41 7 -60 10 -119 18 -318 72 -615 166 -164 52 -324 97 -425 119 -124 27
-184 37 -340 56 -76 10 -302 12 -368 4z m396 -293 c63 -4 121 -9 131 -11 10
-2 42 -6 72 -9 81 -10 101 -12 134 -19 17 -4 46 -9 65 -11 88 -11 371 -78 470
-111 l45 -15 -62 6 c-35 3 -75 8 -90 10 -16 2 -55 6 -88 9 -33 3 -67 8 -75 10
-8 2 -49 7 -90 10 -41 4 -88 8 -105 11 -100 12 -236 18 -425 18 -239 0 -288
-8 -415 -68 -151 -71 -270 -190 -469 -471 -118 -166 -157 -216 -211 -268 -102
-101 -239 -156 -303 -123 -121 63 -121 181 0 362 124 186 420 446 633 556 206
106 418 137 783 114z m-1015 -1710 c153 -42 250 -118 464 -366 291 -336 458
-463 743 -562 51 -17 372 -101 430 -112 14 -2 81 -16 150 -29 69 -14 150 -28
180 -32 30 -3 62 -8 70 -10 43 -11 225 -27 340 -30 130 -3 131 11 3 60 -336
129 -525 259 -506 346 9 40 71 38 311 -10 109 -22 217 -43 242 -46 25 -4 54
-9 65 -11 76 -12 143 -20 265 -30 69 -6 307 -6 352 0 18 3 59 8 92 11 32 4 68
8 80 10 11 2 39 6 61 10 22 3 65 10 95 15 30 6 69 12 85 15 17 3 92 19 168 36
555 122 1004 319 1265 553 87 79 117 85 155 34 34 -45 67 -148 82 -251 2 -17
6 -41 9 -52 5 -27 23 -205 33 -337 5 -78 10 -907 5 -1039 l-3 -96 -937 0
c-915 -1 -939 -2 -1016 -22 -189 -50 -364 -189 -449 -356 -48 -95 -68 -175
-74 -287 l-6 -106 -355 1 -355 2 -3 88 c-5 152 -56 294 -145 408 -45 57 -59
71 -124 124 -90 73 -224 129 -339 141 -33 4 -497 7 -1031 7 l-970 0 -1 26 c0
14 -11 96 -23 181 -12 85 -24 178 -27 205 -2 28 -7 67 -9 88 -20 174 -27 604
-13 762 36 387 157 619 350 669 66 17 211 13 291 -8z m1453 -2363 c68 -23 129
-66 169 -121 61 -84 63 -110 62 -571 l-2 -415 -50 -29 c-247 -147 -252 -149
-281 -130 -24 16 -29 16 -54 1 -27 -15 -31 -14 -146 45 -66 33 -164 84 -219
113 l-100 52 0 39 c0 46 -14 72 -43 78 -34 6 -67 -27 -70 -72 -2 -21 -6 -41
-10 -45 -4 -3 -45 -22 -92 -41 -47 -19 -159 -65 -250 -102 -91 -37 -171 -70
-177 -72 -7 -3 -13 2 -13 11 0 19 -34 38 -63 34 -24 -3 -18 -15 -126 281 -39
107 -41 117 -31 168 11 63 2 90 -34 99 -23 5 -64 -9 -68 -24 -4 -18 -8 -69 -8
-90 0 -13 -25 -61 -55 -107 -112 -172 -235 -366 -235 -371 0 -3 -6 -12 -14
-19 -11 -11 -17 -11 -28 -2 -12 10 -65 167 -149 445 -10 34 -28 92 -40 130
-55 176 -59 197 -54 251 7 60 -11 91 -51 91 -21 0 -54 -23 -54 -38 -1 -4 -3
-24 -6 -45 -4 -28 -1 -44 11 -57 12 -13 15 -29 11 -56 -3 -22 -8 -61 -11 -89
-4 -27 -13 -95 -20 -150 -8 -55 -16 -122 -20 -150 -3 -27 -7 -61 -10 -75 -2
-14 -7 -52 -10 -84 -3 -33 -8 -62 -10 -66 -2 -3 -5 -28 -6 -53 -4 -77 -17 -78
-114 -12 l-85 57 3 477 c2 469 3 477 25 525 44 97 133 174 226 197 17 4 531 7
1142 8 1007 1 1116 -1 1160 -16z m4096 -10 c67 -31 135 -97 166 -162 l27 -56
3 -494 c2 -415 0 -502 -12 -545 -31 -106 -109 -187 -212 -220 -52 -18 -311
-28 -321 -14 -2 5 -4 121 -4 258 l0 250 -27 6 c-15 3 -34 8 -42 11 -26 10
-284 10 -297 0 -10 -7 -13 -73 -13 -268 0 -240 -1 -259 -17 -260 -53 -3 -155
0 -160 4 -3 3 -5 167 -5 364 1 198 -2 364 -6 370 -4 5 -20 13 -37 17 -33 8
-290 15 -317 8 -17 -4 -18 -31 -18 -383 0 -354 -1 -379 -17 -380 -20 -1 -130
-1 -153 0 -13 1 -15 63 -13 501 1 275 -1 502 -6 504 -28 18 -321 33 -357 19
-12 -4 -14 -93 -14 -514 0 -478 -1 -509 -17 -510 -10 -1 -85 -1 -168 -1 -159
0 -215 11 -279 55 -50 33 -96 93 -122 154 l-23 58 2 505 2 505 28 57 c36 72
112 141 187 167 53 19 90 19 1125 18 l1070 -2 47 -22z m-6277 -668 c15 -49 33
-108 40 -130 18 -52 76 -240 119 -386 29 -96 33 -122 26 -155 -13 -55 -12 -70
6 -88 19 -19 67 -21 82 -3 6 7 14 37 18 67 5 40 19 74 52 125 25 39 58 90 73
115 16 25 34 52 39 60 5 8 42 66 82 127 40 62 78 113 83 113 8 0 58 -117 60
-140 0 -3 6 -18 12 -35 75 -193 103 -279 94 -288 -21 -21 -12 -66 14 -83 21
-14 31 -15 51 -6 13 7 27 20 30 29 3 10 9 24 12 32 6 11 219 99 362 148 25 9
49 20 55 24 5 5 16 9 25 9 8 0 27 6 41 14 90 47 133 42 273 -29 349 -178 346
-176 346 -199 0 -33 23 -58 53 -58 38 -1 57 19 57 58 0 27 6 36 29 48 15 8 81
47 146 86 65 38 122 70 127 70 18 0 0 -108 -27 -165 -43 -91 -135 -163 -231
-181 -67 -12 -2233 -8 -2280 5 -56 15 -143 74 -175 119 -27 38 -62 112 -53
112 3 0 32 -19 64 -42 37 -26 60 -49 60 -61 0 -59 63 -78 106 -31 28 29 30 51
8 83 -13 18 -15 37 -10 102 4 43 9 87 10 96 2 10 7 54 11 97 4 43 8 87 10 98
2 10 7 54 10 97 3 44 7 88 9 98 2 10 7 50 10 88 4 39 10 79 13 90 5 18 7 17
19 -10 7 -17 25 -70 39 -120z m1570 -413 c-3 -3 -11 0 -18 7 -9 10 -8 11 6 5
10 -3 15 -9 12 -12z m115 -57 c0 -3 -22 6 -50 20 -27 14 -50 28 -50 30 0 3 23
-6 50 -20 28 -14 50 -28 50 -30z m35 -15 c3 -6 -1 -7 -9 -4 -18 7 -21 14 -7
14 6 0 13 -4 16 -10z m51 -26 c18 -14 18 -14 -6 -3 -31 14 -36 19 -24 19 6 0
19 -7 30 -16z m69 -34 c3 -6 -1 -7 -9 -4 -18 7 -21 14 -7 14 6 0 13 -4 16 -10z
m40 -20 c3 -5 2 -10 -4 -10 -5 0 -13 5 -16 10 -3 6 -2 10 4 10 5 0 13 -4 16
-10z m-2101 -79 c-4 -5 -114 67 -114 74 0 2 26 -12 59 -33 32 -20 57 -39 55
-41z m2165 43 c14 -12 -19 -1 -35 12 -18 14 -18 14 6 3 14 -6 27 -13 29 -15z
m36 -22 c-3 -3 -11 0 -18 7 -9 10 -8 11 6 5 10 -3 15 -9 12 -12z"/>
</g>
</svg>
