<svg width="190px" height="130px" viewBox="0 0 649 115" fill="none" xmlns="http://www.w3.org/2000/svg">
<g filter="url(#filter0_d_7_3)">
<path d="M98.0994 41.8146H75.9031C75.9989 39.1939 75.6953 36.8608 74.9922 34.8153C74.321 32.7699 73.2823 31.0121 71.8761 29.5419C70.4698 28.0717 68.728 26.9691 66.6506 26.234C64.6051 25.467 62.256 25.0835 59.6033 25.0835C54.5217 25.0835 49.8715 26.3619 45.6527 28.9187C41.4659 31.4435 37.9343 35.103 35.0579 39.897C32.2134 44.691 30.2319 50.4599 29.1133 57.2035C28.0586 63.7553 28.0906 69.2205 29.2092 73.5991C30.3597 77.9457 32.4371 81.2216 35.4414 83.4268C38.4776 85.6321 42.2809 86.7347 46.8512 86.7347C49.7276 86.7347 52.4283 86.3832 54.9531 85.68C57.5099 84.945 59.8271 83.9062 61.9045 82.5639C64.0139 81.1896 65.8356 79.5277 67.3697 77.5781C68.9357 75.5966 70.1502 73.3913 71.0131 70.9624H93.4013C92.1548 75.3729 90.1573 79.6875 87.4087 83.9062C84.6921 88.125 81.2884 91.9283 77.1974 95.3161C73.1385 98.6719 68.4563 101.357 63.1509 103.37C57.8775 105.352 52.0447 106.342 45.6527 106.342C36.6399 106.342 28.9055 104.313 22.4496 100.254C16.0256 96.163 11.3754 90.2663 8.49894 82.5639C5.65447 74.8615 5.11115 65.5451 6.86896 54.6147C8.65874 44.0359 12.1264 35.087 17.272 27.7681C22.4496 20.4492 28.7298 14.9041 36.1126 11.1328C43.5273 7.3615 51.4535 5.47585 59.891 5.47585C65.8995 5.47585 71.3168 6.29084 76.1428 7.92081C80.9688 9.51882 85.0756 11.8679 88.4634 14.968C91.8512 18.0682 94.3761 21.8714 96.038 26.3778C97.7319 30.8842 98.419 36.0298 98.0994 41.8146ZM135.517 106.39C127.91 106.39 121.614 104.792 116.628 101.596C111.643 98.4002 108.127 93.9418 106.081 88.2209C104.068 82.468 103.684 75.7884 104.931 68.1818C106.177 60.6392 108.734 54.0394 112.601 48.3825C116.469 42.6935 121.39 38.283 127.367 35.1509C133.376 31.9869 140.167 30.4048 147.742 30.4048C155.348 30.4048 161.628 32.0028 166.582 35.1989C171.568 38.3949 175.068 42.8693 177.081 48.6222C179.127 54.375 179.526 61.0547 178.28 68.6612C177.065 76.1719 174.508 82.7717 170.609 88.4606C166.71 94.1175 161.772 98.5281 155.796 101.692C149.851 104.824 143.091 106.39 135.517 106.39ZM137.866 89.6591C141.03 89.6591 143.843 88.7322 146.303 86.8786C148.796 85.0249 150.874 82.484 152.536 79.256C154.198 75.9961 155.38 72.2727 156.083 68.0859C156.754 63.9311 156.802 60.2717 156.227 57.1076C155.684 53.9116 154.501 51.4187 152.68 49.6289C150.89 47.8072 148.461 46.8963 145.393 46.8963C142.229 46.8963 139.4 47.8232 136.907 49.6768C134.414 51.5305 132.337 54.0874 130.675 57.3473C129.045 60.5753 127.878 64.2986 127.175 68.5174C126.504 72.6403 126.44 76.2997 126.983 79.4957C127.527 82.6598 128.709 85.1527 130.531 86.9744C132.353 88.7642 134.798 89.6591 137.866 89.6591ZM256.195 53.1285L236.299 53.9435C236.267 52.3775 235.868 50.9712 235.101 49.7248C234.366 48.4783 233.295 47.5035 231.889 46.8004C230.483 46.0653 228.757 45.6978 226.711 45.6978C223.515 45.6978 220.671 46.4169 218.178 47.8551C215.685 49.2933 214.279 51.147 213.959 53.4162C213.704 54.7585 214.055 55.9091 215.014 56.8679C216.005 57.7947 218.066 58.6097 221.198 59.3129L234.574 61.9975C241.573 63.4038 246.639 65.8327 249.771 69.2844C252.935 72.7362 254.069 77.2585 253.174 82.8516C252.343 87.6456 250.234 91.8004 246.846 95.3161C243.491 98.8317 239.208 101.564 233.998 103.514C228.789 105.431 223.02 106.39 216.692 106.39C206.305 106.39 198.427 104.281 193.057 100.062C187.72 95.8434 185.179 90.1705 185.435 83.0433L206.864 82.2283C206.992 85.1048 207.967 87.2621 209.788 88.7003C211.642 90.1385 214.167 90.8736 217.363 90.9055C220.911 90.9695 223.947 90.2344 226.472 88.7003C228.997 87.1662 230.419 85.2805 230.738 83.0433C230.962 81.5412 230.499 80.3427 229.348 79.4478C228.198 78.5529 226.088 77.7859 223.02 77.1467L210.651 74.6538C203.588 73.2475 198.506 70.6587 195.406 66.8874C192.306 63.1161 191.236 58.3221 192.194 52.5053C192.993 47.8391 194.927 43.8601 197.995 40.5682C201.063 37.2763 205.058 34.7674 209.98 33.0415C214.902 31.2837 220.511 30.4048 226.807 30.4048C236.715 30.4048 244.194 32.4343 249.243 36.4933C254.325 40.5522 256.642 46.0973 256.195 53.1285ZM261.732 105L274.005 31.3636H294.907L292.749 44.6431H293.564C295.801 40.2326 298.934 36.7649 302.96 34.2401C307.019 31.6832 311.574 30.4048 316.623 30.4048C321.673 30.4048 325.78 31.6992 328.944 34.288C332.14 36.8448 333.914 40.2965 334.266 44.6431H335.033C337.174 40.3285 340.45 36.8768 344.86 34.288C349.271 31.6992 354.193 30.4048 359.626 30.4048C366.465 30.4048 371.691 32.6101 375.302 37.0206C378.946 41.4311 380.097 47.5675 378.754 55.4297L370.508 105H348.552L356.126 60.1758C356.702 56.2766 356.126 53.3363 354.4 51.3548C352.707 49.3732 350.294 48.3825 347.161 48.3825C343.71 48.3825 340.833 49.4851 338.532 51.6903C336.231 53.8956 334.809 56.8519 334.266 60.5593L326.739 105H305.549L313.172 59.8402C313.683 56.2926 313.124 53.4961 311.494 51.4506C309.896 49.4052 307.483 48.3825 304.255 48.3825C302.114 48.3825 300.116 48.9098 298.262 49.9645C296.409 51.0192 294.843 52.5053 293.564 54.4229C292.318 56.3406 291.503 58.5778 291.119 61.1346L283.688 105H261.732ZM385.694 105L397.966 31.3636H419.875L407.602 105H385.694ZM410.766 22.255C407.602 22.255 404.998 21.2003 402.952 19.0909C400.939 16.9815 400.14 14.4567 400.555 11.5163C400.971 8.51207 402.441 5.97123 404.966 3.89382C407.49 1.78444 410.335 0.729755 413.499 0.729755C416.695 0.729755 419.284 1.78444 421.265 3.89382C423.247 5.97123 424.046 8.51207 423.662 11.5163C423.311 14.4567 421.873 16.9815 419.348 19.0909C416.823 21.2003 413.962 22.255 410.766 22.255ZM456.873 106.39C449.203 106.39 442.89 104.792 437.937 101.596C432.983 98.4002 429.515 93.9418 427.533 88.2209C425.552 82.5 425.2 75.9002 426.479 68.4215C427.693 60.9109 430.25 54.2951 434.149 48.5742C438.048 42.8533 443.002 38.3949 449.011 35.1989C455.051 32.0028 461.875 30.4048 469.481 30.4048C476.097 30.4048 481.674 31.6033 486.212 34.0004C490.751 36.3974 494.059 39.7852 496.136 44.1637C498.245 48.5103 498.917 53.608 498.15 59.4567H477.535C477.663 55.7812 476.816 52.8409 474.994 50.6357C473.173 48.3984 470.504 47.2798 466.988 47.2798C464.016 47.2798 461.283 48.0948 458.791 49.7248C456.33 51.3228 454.236 53.6879 452.51 56.82C450.785 59.9201 449.554 63.7074 448.819 68.1818C448.084 72.6882 448.052 76.5075 448.723 79.6396C449.426 82.7717 450.737 85.1527 452.654 86.7827C454.572 88.4126 457.001 89.2276 459.941 89.2276C462.21 89.2276 464.304 88.7642 466.221 87.8374C468.171 86.8786 469.865 85.4883 471.303 83.6665C472.773 81.8448 473.908 79.6396 474.707 77.0508H495.321C494.043 82.9315 491.646 88.0771 488.13 92.4876C484.646 96.8661 480.252 100.286 474.946 102.747C469.641 105.176 463.617 106.39 456.873 106.39ZM522.431 105H498.509L548.319 6.81818H577.563L594.725 105H570.851L559.489 30.4048H558.722L522.431 105ZM526.506 66.3601H579.432L576.508 83.5227H523.582L526.506 66.3601ZM644.464 6.81818L628.164 105H605.919L622.219 6.81818H644.464Z" fill="url(#paint0_linear_7_3)" shape-rendering="crispEdges"/>
</g>
<defs>
<filter id="filter0_d_7_3" x="0.232239" y="0.729755" width="648.231" height="113.661" filterUnits="userSpaceOnUse" color-interpolation-filters="sRGB">
<feFlood flood-opacity="0" result="BackgroundImageFix"/>
<feColorMatrix in="SourceAlpha" type="matrix" values="0 0 0 0 0 0 0 0 0 0 0 0 0 0 0 0 0 0 127 0" result="hardAlpha"/>
<feOffset dy="4"/>
<feGaussianBlur stdDeviation="2"/>
<feComposite in2="hardAlpha" operator="out"/>
<feColorMatrix type="matrix" values="0 0 0 0 0 0 0 0 0 0 0 0 0 0 0 0 0 0 0.25 0"/>
<feBlend mode="normal" in2="BackgroundImageFix" result="effect1_dropShadow_7_3"/>
<feBlend mode="normal" in="SourceGraphic" in2="effect1_dropShadow_7_3" result="shape"/>
</filter>
<linearGradient id="paint0_linear_7_3" x1="324.5" y1="-26" x2="324.5" y2="113" gradientUnits="userSpaceOnUse">
<stop stop-color="#548BAB"/>
<stop offset="0.77" stop-color="#427E69" stop-opacity="0.48"/>
<stop offset="1" stop-color="#31722C" stop-opacity="0"/>
</linearGradient>
</defs>
</svg>
