<?xml version="1.0" encoding="UTF-8"?>
<svg xmlns="http://www.w3.org/2000/svg" xmlns:xlink="http://www.w3.org/1999/xlink" width="190px" height="130px" viewBox="0 0 1440 810" version="1.1">
<g id="surface1">
<path style=" stroke:none;fill-rule:nonzero;fill:rgb(43.137255%,0%,100%);fill-opacity:1;" d="M 58.582031 480.066406 L 58.949219 437.136719 L 170.046875 271.574219 L 58.582031 271.132812 L 83.128906 221.753906 L 243.71875 221.753906 L 243.71875 272.609375 L 135.914062 428.917969 L 248.070312 428.878906 L 210.773438 480.066406 Z M 58.582031 480.066406 "/>
<path style=" stroke:none;fill-rule:nonzero;fill:rgb(43.137255%,0%,100%);fill-opacity:1;" d="M 367.199219 481.566406 C 347.683594 481.566406 330.578125 475.507812 316.253906 467.851562 C 301.925781 460.191406 290.746094 449.265625 282.71875 435.058594 C 274.6875 420.855469 270.675781 404.003906 270.675781 384.480469 C 270.675781 364.957031 274.6875 348.480469 282.71875 334.273438 C 290.746094 320.070312 301.921875 309.140625 316.253906 301.484375 C 330.578125 293.828125 348.15625 287.84375 367.671875 287.84375 C 387.1875 287.84375 403.515625 293.828125 417.960938 301.484375 C 432.414062 309.140625 443.648438 320.078125 451.679688 334.273438 C 459.703125 348.480469 464.84375 366.523438 464.84375 385.792969 C 464.84375 405.058594 459.703125 420.855469 451.679688 435.050781 C 443.648438 449.257812 432.414062 460.191406 417.960938 467.84375 C 403.507812 475.5 386.707031 481.558594 367.199219 481.558594 Z M 366.660156 430.289062 C 378.757812 430.289062 388.785156 427.800781 397.71875 419.078125 C 405.863281 411.121094 407.40625 402.773438 407.40625 384.488281 C 407.40625 366.203125 404.332031 356.242188 395.59375 349.09375 C 388.066406 342.9375 379.304688 339.050781 367.207031 339.050781 C 355.109375 339.050781 344.039062 342.871094 336.628906 351.390625 C 329.21875 359.910156 327.007812 366.464844 327.007812 384.488281 C 327.007812 402.511719 329.121094 412.433594 337.859375 419.730469 C 348.449219 428.574219 354.808594 430.289062 366.667969 430.289062 Z M 366.660156 430.289062 "/>
<path style=" stroke:none;fill-rule:nonzero;fill:rgb(43.137255%,0%,100%);fill-opacity:1;" d="M 610.273438 288.15625 L 610.273438 342.050781 C 610.273438 342.050781 570.757812 336.136719 556.566406 374.558594 C 553.84375 381.929688 552.667969 389.789062 552.667969 397.648438 L 552.667969 478.359375 L 501.855469 478.359375 L 501.855469 390.398438 C 501.855469 390.398438 504.960938 293.113281 610.273438 288.164062 Z M 610.273438 288.15625 "/>
<path style=" stroke:none;fill-rule:nonzero;fill:rgb(43.137255%,0%,100%);fill-opacity:1;" d="M 804.683594 368.273438 C 798.105469 324.382812 760.246094 290.730469 714.523438 290.730469 C 664.207031 290.730469 623.378906 331.53125 623.378906 381.878906 C 623.378906 432.226562 665.136719 474.128906 715.453125 474.128906 C 731.109375 474.128906 758.804688 465.921875 758.804688 465.921875 C 758.804688 465.921875 740.078125 522.953125 687.046875 486.324219 L 651.046875 523.589844 C 651.046875 523.589844 690.1875 561.472656 740.707031 545.671875 C 774.988281 534.96875 790.027344 516.074219 797.941406 497.753906 C 803.257812 485.453125 805.6875 472.101562 805.6875 458.707031 L 805.6875 381.878906 C 805.6875 377.25 805.34375 372.703125 804.675781 368.28125 Z M 717.195312 427.933594 C 693.234375 427.933594 673.800781 408.503906 673.800781 384.515625 C 673.800781 360.53125 693.234375 341.121094 717.195312 341.121094 C 741.15625 341.121094 760.589844 360.554688 760.589844 384.515625 C 760.589844 408.480469 741.15625 427.933594 717.195312 427.933594 Z M 717.195312 427.933594 "/>
<path style=" stroke:none;fill-rule:nonzero;fill:rgb(43.137255%,0%,100%);fill-opacity:1;" d="M 1021.785156 372.425781 L 1021.785156 477.367188 L 971.226562 477.367188 L 971.226562 384.53125 C 971.226562 371.21875 963.613281 358.914062 951.472656 353.460938 C 943.550781 349.90625 936.171875 350.257812 929.691406 352.546875 C 916.125 357.328125 907.273438 370.453125 907.273438 384.839844 L 907.273438 477.359375 L 855.953125 477.359375 L 855.953125 294.675781 L 907.273438 294.675781 L 907.273438 305.023438 C 915.398438 300.515625 927.121094 297.742188 943.65625 297.742188 C 1008.496094 297.742188 1019.527344 349.175781 1021.402344 366.675781 C 1021.785156 370.261719 1021.785156 372.421875 1021.785156 372.421875 Z M 1021.785156 372.425781 "/>
<path style=" stroke:none;fill-rule:nonzero;fill:rgb(43.137255%,0%,100%);fill-opacity:1;" d="M 1147.402344 293.730469 C 1096.425781 293.730469 1055.109375 335.054688 1055.109375 386.03125 C 1055.109375 437.011719 1096.425781 478.328125 1147.402344 478.328125 C 1173.300781 478.328125 1196.707031 467.664062 1213.460938 450.488281 C 1213.425781 450.515625 1213.410156 450.53125 1213.410156 450.53125 L 1179.871094 416.609375 C 1171.734375 425.242188 1160.199219 430.636719 1147.402344 430.636719 C 1130.707031 430.636719 1116.15625 421.460938 1108.515625 407.886719 L 1237.09375 407.886719 C 1238.796875 400.882812 1239.699219 393.5625 1239.699219 386.03125 C 1239.699219 335.054688 1198.378906 293.730469 1147.402344 293.730469 Z M 1108.484375 364.230469 C 1116.121094 350.617188 1130.683594 341.429688 1147.402344 341.429688 C 1164.121094 341.429688 1178.683594 350.617188 1186.320312 364.230469 Z M 1108.484375 364.230469 "/>
<path style=" stroke:none;fill-rule:nonzero;fill:rgb(43.137255%,0%,100%);fill-opacity:1;" d="M 1381.417969 290.308594 L 1381.417969 343.003906 C 1381.417969 343.003906 1342.738281 337.214844 1328.859375 374.789062 C 1326.195312 382.003906 1325.039062 389.683594 1325.039062 397.371094 L 1325.039062 476.289062 L 1275.316406 476.289062 L 1275.316406 390.277344 C 1275.316406 390.277344 1278.351562 295.15625 1381.417969 290.316406 Z M 1381.417969 290.308594 "/>
</g>
</svg>
