<?xml version="1.0" encoding="UTF-8"?>
<svg id="Layer_2" data-name="Layer 2" xmlns="http://www.w3.org/2000/svg" viewBox="0 0 1920 1080">
  <defs>
    <style>
      .cls-1 {
        fill: #6e00ff;
        stroke-width: 0px;
      }
    </style>
  </defs>
  <g id="logo">
    <path class="cls-1" d="M78.11,640.09l.49-57.24,148.13-220.75-148.62-.59,32.73-65.84h214.12v67.81l-143.74,208.41,149.54-.05-49.73,68.25H78.11Z"/>
    <path class="cls-1" d="M489.6,642.09c-26.02,0-48.83-8.08-67.93-18.29-19.1-10.21-34.01-24.78-44.71-43.72-10.71-18.94-16.06-41.41-16.06-67.44s5.35-48,16.06-66.94c10.7-18.94,25.6-33.51,44.71-43.72,19.1-10.21,42.54-18.19,68.56-18.19s47.79,7.98,67.05,18.19c19.27,10.21,34.25,24.79,44.96,43.72,10.7,18.94,17.55,43,17.55,68.69s-6.85,46.75-17.55,65.68c-10.71,18.94-25.69,33.52-44.96,43.72-19.27,10.21-41.67,18.29-67.68,18.29ZM488.88,573.72c16.13,0,29.5-3.32,41.41-14.95,10.86-10.61,12.92-21.74,12.92-46.12s-4.1-37.66-15.75-47.19c-10.04-8.21-21.72-13.39-37.85-13.39s-30.89,5.09-40.77,16.45c-9.88,11.36-12.83,20.1-12.83,44.13s2.82,37.26,14.47,46.99c14.12,11.79,22.6,14.08,38.41,14.08Z"/>
    <path class="cls-1" d="M813.7,384.21v71.86s-52.69-7.89-71.61,43.34c-3.63,9.83-5.2,20.31-5.2,30.79v107.61h-67.75v-117.28s4.14-129.71,144.56-136.31Z"/>
    <path class="cls-1" d="M1072.91,491.03c-8.77-58.52-59.25-103.39-120.21-103.39-67.09,0-121.53,54.4-121.53,121.53s55.68,123,122.77,123c20.87,0,57.8-10.94,57.8-10.94,0,0-24.97,76.04-95.68,27.2l-48,49.69s52.19,50.51,119.55,29.44c45.71-14.27,65.76-39.46,76.31-63.89,7.09-16.4,10.33-34.2,10.33-52.06v-102.44c0-6.17-.46-12.23-1.35-18.13ZM956.26,570.58c-31.95,0-57.86-25.91-57.86-57.89s25.91-57.86,57.86-57.86,57.86,25.91,57.86,57.86-25.91,57.89-57.86,57.89Z"/>
    <path class="cls-1" d="M1362.38,496.57v139.92h-67.41v-123.78c0-17.75-10.15-34.16-26.34-41.43-10.56-4.74-20.4-4.27-29.04-1.22-18.09,6.38-29.89,23.88-29.89,43.06v123.36h-68.43v-243.58h68.43v13.8c10.83-6.01,26.46-9.71,48.51-9.71,86.45,0,101.16,68.58,103.66,91.91.51,4.78.51,7.66.51,7.66Z"/>
    <path class="cls-1" d="M1529.87,391.64c-67.97,0-123.06,55.1-123.06,123.07s55.09,123.06,123.06,123.06c34.53,0,65.74-14.22,88.08-37.12-.05.04-.07.06-.07.06l-44.72-45.23c-10.85,11.51-26.23,18.7-43.29,18.7-22.26,0-41.66-12.23-51.85-30.33h171.44c2.27-9.34,3.47-19.1,3.47-29.14,0-67.97-55.09-123.07-123.06-123.07ZM1477.98,485.64c10.18-18.15,29.6-30.4,51.89-30.4s41.71,12.25,51.89,30.4h-103.78Z"/>
    <path class="cls-1" d="M1841.89,387.08v70.26s-51.57-7.72-70.08,42.38c-3.55,9.62-5.09,19.86-5.09,30.11v105.22h-66.3v-114.68s4.05-126.83,141.47-133.28Z"/>
  </g>
</svg>