<svg width="800" height="800" viewBox="0 0 800 800" fill="none" xmlns="http://www.w3.org/2000/svg">
<path d="M33.3669 733.285C28.9673 733.267 24.6078 734.121 20.5398 735.796C16.4717 737.472 12.7756 739.936 9.6646 743.047C6.55359 746.158 4.08923 749.854 2.41362 753.923C0.738015 757.991 -0.115685 762.35 -0.0982489 766.75C-0.0831649 771.129 0.794529 775.461 2.48469 779.501C4.17485 783.54 6.64435 787.207 9.75211 790.292C12.8599 793.377 16.545 795.819 20.5969 797.48C24.6488 799.14 28.9881 799.985 33.3669 799.968H766.634C771.013 799.985 775.352 799.139 779.404 797.479C783.456 795.819 787.141 793.377 790.248 790.292C793.356 787.207 795.825 783.54 797.515 779.501C799.205 775.461 800.083 771.128 800.098 766.75C800.116 762.35 799.262 757.991 797.586 753.923C795.911 749.855 793.447 746.159 790.336 743.048C787.225 739.937 783.529 737.472 779.461 735.797C775.393 734.121 771.034 733.267 766.634 733.285H33.3669Z" fill="#00A86B"/>
<path d="M146.555 500.017C102.811 500.017 66.5852 536.243 66.5852 579.988V766.75C66.6007 771.128 67.4787 775.461 69.1689 779.5C70.8591 783.539 73.3286 787.206 76.4361 790.291C79.5436 793.375 83.2284 795.818 87.28 797.478C91.3316 799.139 95.6706 799.985 100.049 799.968H233.416C242.217 799.937 250.648 796.427 256.87 790.204C263.093 783.981 266.603 775.55 266.634 766.75V579.988C266.634 536.243 230.408 500.017 186.663 500.017H146.555Z" fill="#00A86B"/>
<path d="M380.069 386.582C336.325 386.582 300.098 422.806 300.098 466.553V766.75C300.129 775.55 303.639 783.981 309.862 790.204C316.085 796.427 324.516 799.937 333.317 799.968H466.683C475.484 799.937 483.915 796.427 490.138 790.204C496.361 783.981 499.87 775.55 499.902 766.75V466.553C499.902 422.806 463.675 386.582 419.931 386.582H380.069Z" fill="#00A86B"/>
<path d="M613.337 286.68C569.592 286.68 533.366 322.906 533.366 366.651V766.75C533.397 775.55 536.907 783.982 543.13 790.205C549.353 796.427 557.785 799.937 566.585 799.968H699.951C704.33 799.985 708.669 799.139 712.72 797.479C716.772 795.818 720.457 793.376 723.565 790.291C726.672 787.207 729.142 783.54 730.832 779.5C732.523 775.461 733.4 771.128 733.416 766.75V366.651C733.416 322.906 696.944 286.68 653.199 286.68H613.337Z" fill="#00A86B"/>
<path d="M582.113 0.0318616C573.306 0.0489731 564.864 3.55058 558.631 9.7718C552.397 15.993 548.879 24.4283 548.845 33.235C548.827 37.6179 549.675 41.9611 551.338 46.0161C553.002 50.0711 555.448 53.7582 558.539 56.8664C561.629 59.9747 565.301 62.443 569.347 64.1301C573.392 65.8172 577.73 66.69 582.113 66.6985H616.553C428.029 228.782 230.631 329.466 27.2299 367.154C18.5592 368.797 10.8938 373.811 5.91444 381.097C0.935101 388.383 -0.951774 397.346 0.667552 406.022C2.25281 414.686 7.20335 422.371 14.4374 427.397C21.6714 432.423 30.6008 434.382 39.2742 432.844C258.279 392.265 469.001 283.441 666.748 111.816V151.074C666.731 155.451 667.576 159.789 669.236 163.84C670.895 167.89 673.336 171.575 676.419 174.682C679.502 177.789 683.167 180.259 687.205 181.95C691.243 183.641 695.574 184.52 699.951 184.537C704.351 184.554 708.71 183.701 712.778 182.025C716.845 180.349 720.541 177.885 723.652 174.774C726.763 171.663 729.227 167.968 730.903 163.9C732.578 159.832 733.432 155.473 733.415 151.074V52.8964C733.421 24.1267 709.06 0.0255624 680.29 0.0318616H582.113Z" fill="#00A86B"/>
</svg>
