<svg version="1.2" baseProfile="tiny-ps" xmlns="http://www.w3.org/2000/svg" viewBox="0 0 1601 122" width="1601" height="122">
	<title>warby_parker-svg</title>
	<style>
		tspan { white-space:pre }
		.s0 { fill: #414b56 } 
	</style>
	<path id="Layer" fill-rule="evenodd" class="s0" d="m1598.57 110.46c0.45 0.51 1.64 2.57 1.48 4.13c0 3.3-5.05 4.62-5.56 4.62h-7.06c-1.94 0-4.62-1.4-5.39-2.67l-29.44-39.92h-32.36v37.41c-0.07 0.89 0.15 1.87-1.22 3.45c-1.87 1.84-3.4 1.72-3.8 1.72h-7.24c-0.85 0-2.79-0.1-4.11-1.87c-1.01-1.61-0.85-2.49-0.89-3.31c-0.05-2.33-0.05-103.74 0-105.64c0-2.25 3.04-5.29 4.68-5.29l0.31 0.07h43.45c24.82 0 41.21 17.53 41.25 37.47c0 15.49-9.13 26.79-22.25 32.43c5.83 7.74 19.2 25.44 28.14 37.39l-0.01 0zm-48.52-48.98c18.04-0.34 25.79-8.56 25.95-20.53c-0.04-13.6-10.53-21.91-24.91-22.29h-30.84v42.83h29.8zm-93.94 52.13c-0.05 0.98 0.45 2.12-1.41 4.2c-1.85 1.43-2.95 1.4-3.65 1.4h-73.86c-1 0-2.91-0.29-4.19-2.19c-1.24-1.67-0.7-2.65-0.78-3.68v-105.74c0.08-0.27-0.54-1.73 1.36-3.52c1.46-0.98 2.31-0.98 2.77-0.89h73.85c0.85 0 2.3 0 4.09 1.44c1.29 2.04 0.8 3.16 1.1 4.11v4.05c-0.05 1.07 0.04 2.05-1.07 3.94c-1.47 1.93-3.69 2.04-4.44 1.95h-60.53v33.79h59.85c3.47 0 5.09 5.02 5.09 5.87v3.31c0 1.35-1.44 6.38-5.09 6.38h-60.02v35.7h61.17c0.28 0.13 0.59 0 0.69 0c0.93 0 2.12 0 3.95 1.53c1.63 2.53 1.01 3.4 1.12 4.35l0 4.02zm-169.38-61.79l0 0l0 0l0 0.01zm0 0l45.89 59.57c0.64 0.84 1.15 1.61 1.18 3.25c0 2.85-3.56 4.57-5.32 4.57h-7.59c-4.28-0.73-4.78-2.11-6.29-3.31l-39.92-51.17l-23.41 25.65v23.74c0 0.62 0.13 2.28-1.52 3.85c-1.99 1.26-3.25 1.13-4.27 1.23h-5.79c-1.16 0-2.81-0.22-4.17-1.49c-1.4-1.17-1.4-2.75-1.4-3.58c-0.04-1.18-0.04-104.26 0-105.74c0-0.85-0.04-2.36 1.33-3.85c1.69-1.35 3.22-1.35 4.02-1.35h6.46c0.85 0 2.81 0.04 4.21 1.64c1.25 1.84 1.12 2.97 1.12 3.77v58.72l56.42-62.27c0.66-0.46 3.05-2.11 5.39-1.87h6.93c2.84 0 5.21 1.87 5.47 5c0 1.15-0.63 2.04-1.24 2.8l-37.51 40.83zm-125.8 21.26c5.99 7.74 19.08 25.44 28.09 37.39c0.45 0.51 1.61 2.57 1.54 4.13c0 3.3-5.05 4.62-5.77 4.62h-6.77c-2.03 0-4.7-1.4-5.29-2.67l-29.6-39.92h-32.53v37.41c0 0.89 0.29 1.87-1.15 3.45c-1.78 1.84-3.54 1.72-3.84 1.72h-7.16c-0.64 0-2.59-0.1-3.89-1.87c-1.19-1.61-0.94-2.49-0.98-3.31v-105.65c0-2.25 3.11-5.29 4.71-5.29l0.16 0.08h43.31c25.22 0 41.47 17.53 41.47 37.47c0.05 15.49-9.18 26.79-22.28 32.43zm-20.33-11.59c18.04-0.34 25.81-8.56 25.97-20.53c-0.12-13.6-10.81-21.91-25.22-22.29h-30.77v42.83h30.02zm-137.99-57.91c10.33 20.66 48.37 94.68 55.16 108.32c0.17 0.84 0.67 1.51 0.77 2.91c0 3.01-4.11 4.41-5.38 4.41h-7.09c-0.11 0.04-0.24 0.04-0.32 0.04c-1.87 0-4.79-2.28-4.91-3.31l-11.47-22.9h-63.15l-11.37 22.44c-0.11 1.19-3.46 4.18-6.2 3.72h-5.7c-0.86 0-5.37 0-5.77-4.35c0-1.83 0.41-2.59 0.92-3.15c6.05-12.14 44.23-87.95 54.99-108.14c0 0 1.57-3.3 4.61-3.17c3.21-0.13 4.91 3.08 4.91 3.17l-0.01 0zm-29.32 74.36c0 0 0 0 0-0.01h0l0 0.01zm0-0.01h48.69c-4.95-10.11-16.15-32.8-23.95-48.62c-0.13-0.14-0.17-0.19-0.33-0.28c0 0.05-0.04 0.09-0.13 0.14c-7.63 16-19.05 38.65-24.28 48.76zm-93.18-74.75c21.73 0 41.37 14.06 41.46 37c-0.1 22.83-18.85 36.91-44.7 36.96h-28.07v36.9c-0.12 0.61 0.3 1.32-0.8 3.06c-1.28 2.11-3.34 2.11-3.89 2.11h-7.54c-0.64 0-2.12 0-3.59-1.6c-1.57-1.88-1.05-2.76-1.3-3.57v-105.64c0-1.19 0.25-2.53 1.45-3.81c1.23-1.35 2.89-1.48 3.49-1.4l43.5 0zm-0.2 58.56c13.71-0.14 24.42-7.21 24.5-21.56c0-13.54-10.85-21.14-24.82-21.5h-30.79v42.97c7.11 0 21.72 0 31.11 0.1h0.01zm-178.86-58.57c0.58 0 5.02 0.23 5.32 4.42c-0.13 1.9-0.59 2.22-0.94 3.25c-9.16 14.52-37.32 57.98-41.86 64.6v37.95c0 1.12 0.34 2.2-1.14 4.21c-1.83 1.6-3.27 1.6-4.28 1.6h-6.62c-0.85 0-2.52-0.22-3.61-1.6c-1.53-1.7-1.19-2.75-1.28-3.81v-38.35c-4.56-6.75-33.74-52.07-42.2-65.15c-0.2-0.47-0.76-1.22-0.83-2.7c0.83-4.41 4.95-4.41 6.12-4.41h6.01c1.71-0.59 5.63 2.04 5.63 3.07c5.85 8.75 25.9 39.8 33.78 52.18c7.83-12.19 27.95-43 33.79-51.72c0.63-1.44 3.08-3.63 5.32-3.52h6.79l0.01-0.01zm-142.13 55.94c10.24 5.03 16.8 15.11 16.8 27.25c-0.08 21.84-15.76 32.85-40.56 32.85h-51.16c-2.42 0-5.17-3.48-5.17-5.17v-105.44c0-1.06 0-2.91 1.57-4.15c1.61-1.27 3.21-1.27 3.98-1.27h43.47c22.43 0 41.53 11.31 41.53 31.94c0.24 10.93-3.9 19.12-10.46 23.98l0.01 0.01zm-62.76-5.98h35.55c15.95-0.67 19.62-4.5 20.51-17.35c-0.2-10.03-7.64-16.71-23.27-17.14h-32.78v34.49zm37.78 50.71c17.95-0.68 24.08-5.52 24.56-17.49c-0.14-10.53-8.5-17.82-24.87-18.06h-37.47v35.56h37.78l0.01-0.01zm-128.56-30.74c5.93 7.71 19.08 25.5 27.97 37.35c0.4 0.45 1.65 2.53 1.57 4.13c0 3.52-4.91 4.62-5.66 4.62h-7.16c-1.92 0-4.05-1.49-4.96-2.67l-29.57-39.74h-32.56v37.24c-0.17 0.82 0.3 1.7-1.14 3.57c-1.64 1.6-3.08 1.6-3.72 1.6h-7.1c-0.77 0-2.71 0-4.2-1.92c-1.14-1.56-0.84-2.44-0.84-3.25v-105.64c0-1.19 0.13-2.53 1.35-3.81c1.14-1.35 2.84-1.48 3.47-1.4h43.56c25 0 41.15 17.48 41.4 37.47c0 15.5-9.31 26.79-22.39 32.46l-0.02-0.01zm-20.17-11.63c17.69-0.21 25.31-8.55 25.82-20.53c-0.27-13.59-10.91-21.9-25.07-22.27h-31.03v42.81h30.28l-0.01-0.01zm-84.23 50.42c0.45 0.84 0.82 1.51 0.82 2.91c0 3.01-4.01 4.41-5.23 4.41h-7.24c-0.09 0.04-0.3 0.04-0.41 0.04c-1.76 0-4.85-2.28-4.96-3.31l-11.34-22.9h-63.33l-10.91 22.44c-0.37 1.19-3.55 4.18-6.27 3.72h-5.71c-0.8 0-5.39 0-5.97-4.35c0-1.83 0.59-2.59 1.07-3.15c6.08-12.14 44.36-87.95 54.81-108.14c0 0 1.81-3.3 4.85-3.17c3.31-0.13 4.71 3.08 4.71 3.17c10.57 20.65 48.54 94.68 55.11 108.32zm-84.25-33.95c0 0 0 0 0-0.01h0v0.01zm0-0.01l48.72 0c-5.16-10.11-16.17-32.8-24.13-48.62c-0.07-0.14-0.18-0.19-0.21-0.35c0 0.13-0.04 0.16-0.04 0.21c-7.83 16-19.34 38.65-24.34 48.76zm-58.2-74.76c0.46 0 5.49 0.6 5.49 4.41c-0.12 1.43-0.26 1.78-0.54 2.7c-11.13 28.62-28.36 72.05-42.75 108.11c-0.38 2.45-4.6 3.36-4.93 3.25c-0.46 0.1-4.67-0.79-5.21-3.38c-8.12-21.63-21.88-59.38-28.34-77.19c-6.6 17.61-20.36 54.68-28.53 77.16c-1.16 3.65-5.03 3.41-5.03 3.41h-0.34c-0.77 0-3.17-0.5-4.8-3.09l-42.92-108.27c-0.19-0.92-0.61-1.51-0.61-2.83c-0.09-0.8 0.46-2.83 1.95-3.68c1.6-0.68 2.29-0.6 2.77-0.6h7.38c2.68-0.24 5.2 2.43 5.56 4.19c8.68 22.14 23.9 60.84 31.01 78.84l28.5-80.07c0-1.17 3.21-3.75 4.73-3.25h0.46c0.3-0.21 4.36 0.64 4.89 3.18l29.42 80.07l30.26-79.48c0-1.9 4.45-3.94 5.87-3.48l5.72 0z" />
</svg>