<?xml version="1.0" encoding="UTF-8"?>
<svg id="Layer_3" data-name="Layer 3" xmlns="http://www.w3.org/2000/svg" viewBox="0 0 600 200">
  <defs>
    <style>
      .cls-1 {
        fill: #448c74;
        stroke-width: 0px;
      }
    </style>
  </defs>
  <path class="cls-1" d="m288.16,15.09c-8.3-6.93-22.68-7.19-30.57-6.75-2.98.18-5.92.75-8.77,1.67-5.27,1.72-16.46,4.79-29.22,4.79-16.14,0-24.25-7.62-41.54-8.24-4.06-.15-8.12.53-11.92,1.94-8.5,3.17-22.24,10.79-19.68,26.62.03.15-.07.28-.2.3-2.55.41-23.31,5.04-11.29,43.91l4.14,11.47c.03.1.13.17.25.17h8.8c.17,0,.3-.13.27-.3-.66-3.71-6.81-40.38,7.11-41.46,14.67-1.13,14.11,15.8,32.72,20.89,14.3,3.9,22.28,4.13,25.21,4.03.3,0,.35-.41.07-.51-3.4-1.21-12.63-4.76-12.86-7.76-.28-3.66,12.98,3.4,28.49,1.41,15.51-1.97,31.05-7.04,38.37-14.39,7.01-6.99,5.52,34.08,5.37,37.83,0,.15.12.27.27.27h10.28c.1,0,.2-.05.23-.15.81-2.02,8.83-22.91,1.08-43.54,0-.02-.02-.03-.03-.07-.43-.58-7.67-10.76,8.19-13.51h6.8c.15,0,.28-.12.27-.28-.12-1.56-1.23-9.5-11.84-18.33Zm-110.11.13c-8.88.85-13.11,9.1-17.55,15.02-4.44,5.93-8.25,5.09-8.25,5.09-7.84-3.38,6.4-16.56,13.49-20.06,2.74-1.34,5.67-2.15,8.7-2.37,13.28-.94,27.75,3.8,27.75,3.8,1.26.65-15.25-2.32-24.13-1.48Z"/>
  <g>
    <path class="cls-1" d="m297.06,103.08h-5.24v2.85c0-8.25-6.7-14.95-14.95-14.95h-42.18c-8.25,0-14.95,6.7-14.95,14.95v1.56h-15.38v-1.56c0-8.25-6.68-14.95-14.95-14.95h-44.57c-7.28,0-13.34,5.2-14.69,12.1h-3.65c-1.92,0-3.5,1.31-3.5,2.93v4.86c0,1.61,1.57,2.93,3.5,2.93h3.38v10.76c0,8.25,6.7,14.95,14.95,14.95h44.57c8.27,0,14.95-6.7,14.95-14.95v-5.22h15.38v5.22c0,8.25,6.7,14.95,14.95,14.95h42.18c8.25,0,14.95-6.7,14.95-14.95v-10.76h5.24c1.62,0,2.93-1.33,2.93-2.93v-4.86c0-1.62-1.31-2.93-2.93-2.93Zm-100.32,22.61c0,3.9-3.17,7.04-7.06,7.04h-45.7c-3.9,0-7.06-3.15-7.06-7.04v-18.63c0-3.9,3.17-7.04,7.06-7.04h45.7c3.9,0,7.06,3.15,7.06,7.04v18.63Zm87.17,0c0,3.9-3.15,7.04-7.04,7.04h-43.03c-3.9,0-7.04-3.15-7.04-7.04v-18.63c0-3.9,3.15-7.04,7.04-7.04h43.03c3.9,0,7.04,3.15,7.04,7.04v18.63Z"/>
    <circle class="cls-1" cx="187.46" cy="113.67" r="2.71"/>
    <circle class="cls-1" cx="237.73" cy="113.8" r="2.71"/>
  </g>
  <path class="cls-1" d="m270.95,146.84c-63.48,94.23-116.81-1.69-116.81-1.69,0,0,0,11.29,9.03,20.03,0,0-11.85,18.06-7.9,27.23,0,0,7.48-12.13,19.89-9.87,12.41,2.26,23.14,10.3,42.18,9.87s16.58-11.07,31.81-10.44c15.24.63,20.1,10.46,20.1,10.46,0,0,4.02-10.67-7.19-25.48l8.89-20.1Z"/>
</svg>